<svg xmlns="http://www.w3.org/2000/svg" viewBox="0 0 328.4 295" overflow="scroll"><path fill="#F4F4F4" d="M140 295H5c-2.8 0-5-2.2-5-5V5c0-2.8 2.2-5 5-5h135c2.8 0 5 2.2 5 5v285c0 2.8-2.2 5-5 5zm183.4 0h-135c-2.8 0-5-2.2-5-5V5c0-2.8 2.2-5 5-5h135c2.8 0 5 2.2 5 5v285c0 2.8-2.2 5-5 5z"/><path fill="#78903F" d="M25.3 34h-3.1V19.2l-4.5 1.5v-2.6l7.2-2.7h.4V34zm17.3-7.8c0 2.7-.5 4.7-1.5 6-1 1.4-2.5 2-4.5 2s-3.5-.7-4.5-2-1.5-3.3-1.6-5.8v-3.2c0-2.7.5-4.7 1.5-6 1-1.3 2.5-2 4.6-2 2 0 3.5.6 4.5 1.9 1 1.3 1.5 3.2 1.5 5.8v3.3zm-3.1-3.4c0-1.7-.2-3-.7-3.8-.5-.8-1.2-1.2-2.3-1.2-1 0-1.7.4-2.2 1.1-.5.8-.7 2-.7 3.6v4.2c0 1.7.2 3 .7 3.9s1.2 1.3 2.3 1.3c1 0 1.7-.4 2.2-1.2.5-.8.7-2 .7-3.7v-4.2zm18.3 3.4c0 2.7-.5 4.7-1.5 6-1 1.4-2.5 2-4.5 2s-3.5-.7-4.5-2-1.5-3.3-1.6-5.8v-3.2c0-2.7.5-4.7 1.5-6 1-1.3 2.5-2 4.6-2 2 0 3.5.6 4.5 1.9 1 1.3 1.5 3.2 1.5 5.8v3.3zm-3.1-3.4c0-1.7-.2-3-.7-3.8-.5-.8-1.2-1.2-2.3-1.2-1 0-1.7.4-2.2 1.1-.5.8-.7 2-.7 3.6v4.2c0 1.7.2 3 .7 3.9s1.2 1.3 2.3 1.3c1 0 1.7-.4 2.2-1.2.5-.8.7-2 .7-3.7v-4.2zm22.5 4.5h-4.5c.1 1.5.4 2.6 1.1 3.3.7.7 1.7 1.1 3 1.1.9 0 1.8-.1 2.6-.4l.4 2.6c-1 .2-2.1.4-3.1.4-2.2 0-3.9-.6-5.1-1.8s-1.9-2.9-2-5.1h-2.2v-1.8h2.2V24h-2.2v-1.8h2.2c.1-2.2.8-3.8 2.1-5 1.3-1.2 3-1.8 5.1-1.8.9 0 1.9.1 3 .4l-.4 2.6c-.9-.3-1.7-.4-2.6-.4-1.3 0-2.3.4-2.9 1.1-.7.7-1.1 1.8-1.1 3.2h4.5v1.8h-4.5v1.6h4.5v1.6zM83 35h-1.2l4.8-12.4h1.2L83 35zm7.3-9.5v.9c.6-.7 1.5-1.1 2.5-1.1 1.2 0 2 .5 2.4 1.4.3-.4.6-.7 1.1-1s1-.4 1.6-.4c1.9 0 2.8 1 2.8 2.9V34h-1.4v-5.6c0-.6-.1-1.1-.4-1.4s-.7-.4-1.4-.4c-.5 0-1 .2-1.3.5s-.6.8-.6 1.3V34h-1.5v-5.5c0-1.2-.6-1.8-1.8-1.8-.9 0-1.6.4-1.9 1.2V34H89v-8.5h1.3zm12.4 4.2c0-.8.2-1.6.5-2.2s.8-1.2 1.4-1.5 1.2-.5 2-.5c1.2 0 2.1.4 2.8 1.2s1.1 1.9 1.1 3.2v.1c0 .8-.2 1.6-.5 2.2s-.8 1.2-1.4 1.5-1.3.5-2 .5c-1.1 0-2.1-.4-2.8-1.2s-1.1-1.9-1.1-3.2v-.1zm1.4.2c0 .9.2 1.7.7 2.3s1 .9 1.7.9 1.3-.3 1.8-.9.6-1.4.6-2.4c0-.9-.2-1.7-.7-2.3s-1-.9-1.8-.9c-.7 0-1.3.3-1.7.9s-.6 1.3-.6 2.4zm8.1-6.6c0-.2.1-.4.2-.6s.4-.2.6-.2.5.1.6.2.2.4.2.6-.1.4-.2.6-.4.2-.6.2-.5-.1-.6-.2-.2-.4-.2-.6zm1.6 10.7h-1.4v-8.5h1.4V34zm7.2-2.2c0-.4-.1-.7-.4-.9s-.8-.4-1.5-.6-1.3-.3-1.7-.6-.7-.5-1-.8-.3-.7-.3-1.1c0-.7.3-1.3.9-1.8s1.3-.7 2.2-.7c1 0 1.7.2 2.3.7s.9 1.1.9 1.9h-1.5c0-.4-.2-.7-.5-1s-.8-.4-1.3-.4-.9.1-1.2.3-.4.5-.4.9c0 .3.1.6.4.8s.8.3 1.5.5 1.3.4 1.8.6.8.5 1 .8.3.7.3 1.2c0 .8-.3 1.4-.9 1.8s-1.4.7-2.4.7c-.7 0-1.3-.1-1.8-.4s-.9-.6-1.2-1-.4-.9-.4-1.4h1.4c0 .5.2.9.6 1.2s.8.4 1.4.4c.5 0 1-.1 1.3-.3s.5-.5.5-.8z"/><path fill="#FFF" d="M212 238.2h88v38.9h-88z"/><path fill="#78903F" d="M298.9 239.2V276H213v-36.8h85.9m2-2.1h-90V278h90v-40.9z"/><path fill="#78903F" d="M261 260.9h-6.4c.1 2.1.6 3.6 1.6 4.7 1 1 2.4 1.5 4.2 1.5 1.3 0 2.5-.2 3.7-.6l.5 3.7c-1.4.3-2.9.5-4.5.5-3.1 0-5.5-.9-7.2-2.6s-2.7-4.1-2.8-7.2H247v-2.5h3.1v-2.3H247v-2.5h3.1c.2-3.1 1.1-5.4 2.9-7.1 1.8-1.7 4.2-2.5 7.2-2.5 1.3 0 2.7.2 4.3.6l-.5 3.7c-1.2-.4-2.4-.6-3.6-.6-1.8 0-3.2.5-4.2 1.5s-1.5 2.5-1.6 4.5h6.4v2.5h-6.4v2.3h6.4v2.4zM218.3 32.7h-12.4v-2.1l6.2-6.7c.9-1 1.5-1.8 1.9-2.5.4-.7.6-1.3.6-2 0-.9-.2-1.6-.7-2.1-.5-.5-1.2-.8-2-.8-1 0-1.8.3-2.3.9s-.8 1.4-.8 2.5h-3.1c0-1.1.3-2.1.8-3 .5-.9 1.2-1.6 2.2-2.1 1-.5 2.1-.7 3.3-.7 1.8 0 3.2.5 4.2 1.4 1 .9 1.6 2.1 1.6 3.7 0 .9-.3 1.9-.8 2.9s-1.4 2.2-2.6 3.4l-4.5 4.8h8.6v2.4zm14.2-7.8c0 2.7-.5 4.7-1.5 6-1 1.4-2.5 2-4.5 2s-3.5-.7-4.5-2-1.5-3.3-1.6-5.8v-3.2c0-2.7.5-4.7 1.5-6 1-1.3 2.5-2 4.6-2 2 0 3.5.6 4.5 1.9 1 1.3 1.5 3.2 1.5 5.8v3.3zm-3.1-3.5c0-1.7-.2-3-.7-3.8-.5-.8-1.2-1.2-2.3-1.2-1 0-1.7.4-2.2 1.1-.5.8-.7 2-.7 3.6v4.2c0 1.7.2 3 .7 3.9s1.2 1.3 2.3 1.3c1 0 1.7-.4 2.2-1.2.5-.8.7-2 .7-3.7v-4.2zm18.4 3.5c0 2.7-.5 4.7-1.5 6-1 1.4-2.5 2-4.5 2s-3.5-.7-4.5-2-1.5-3.3-1.6-5.8v-3.2c0-2.7.5-4.7 1.5-6 1-1.3 2.5-2 4.6-2 2 0 3.5.6 4.5 1.9 1 1.3 1.5 3.2 1.5 5.8v3.3zm-3.1-3.5c0-1.7-.2-3-.7-3.8-.5-.8-1.2-1.2-2.3-1.2-1 0-1.7.4-2.2 1.1-.5.8-.7 2-.7 3.6v4.2c0 1.7.2 3 .7 3.9s1.2 1.3 2.3 1.3c1 0 1.7-.4 2.2-1.2.5-.8.7-2 .7-3.7v-4.2zm22.5 4.6h-4.5c.1 1.5.4 2.6 1.1 3.3.7.7 1.7 1.1 3 1.1.9 0 1.8-.1 2.6-.4l.4 2.6c-1 .2-2.1.4-3.1.4-2.2 0-3.9-.6-5.1-1.8s-1.9-2.9-2-5.1h-2.2v-1.8h2.2v-1.6h-2.2v-1.8h2.2c.1-2.2.8-3.8 2.1-5 1.3-1.2 3-1.8 5.1-1.8.9 0 1.9.1 3 .4l-.4 2.6c-.9-.3-1.7-.4-2.6-.4-1.3 0-2.3.4-2.9 1.1-.7.7-1.1 1.8-1.1 3.2h4.5v1.8h-4.5v1.6h4.5V26zm5.7 7.6h-1.2l4.8-12.4h1.2l-4.8 12.4zm7.4-9.4v.9c.6-.7 1.5-1.1 2.5-1.1 1.2 0 2 .5 2.4 1.4.3-.4.6-.7 1.1-1s1-.4 1.6-.4c1.9 0 2.8 1 2.8 2.9v5.7h-1.4V27c0-.6-.1-1.1-.4-1.4s-.7-.4-1.4-.4c-.5 0-1 .2-1.3.5s-.6.8-.6 1.3v5.6h-1.5v-5.5c0-1.2-.6-1.8-1.8-1.8-.9 0-1.6.4-1.9 1.2v6.2H279v-8.5h1.3zm12.3 4.2c0-.8.2-1.6.5-2.2s.8-1.2 1.4-1.5 1.2-.5 2-.5c1.2 0 2.1.4 2.8 1.2s1.1 1.9 1.1 3.2v.1c0 .8-.2 1.6-.5 2.2s-.8 1.2-1.4 1.5-1.3.5-2 .5c-1.1 0-2.1-.4-2.8-1.2s-1.1-1.9-1.1-3.2v-.1zm1.5.1c0 .9.2 1.7.7 2.3s1 .9 1.7.9 1.3-.3 1.8-.9.6-1.4.6-2.4c0-.9-.2-1.7-.7-2.3s-1-.9-1.8-.9c-.7 0-1.3.3-1.7.9s-.6 1.4-.6 2.4zm8.1-6.5c0-.2.1-.4.2-.6s.4-.2.6-.2.5.1.6.2.2.4.2.6-.1.4-.2.6-.4.2-.6.2-.5-.1-.6-.2-.2-.4-.2-.6zm1.6 10.7h-1.4v-8.5h1.4v8.5zm7.2-2.3c0-.4-.1-.7-.4-.9s-.8-.4-1.5-.6-1.3-.3-1.7-.6-.7-.5-1-.8-.4-.5-.4-1c0-.7.3-1.3.9-1.8s1.3-.7 2.2-.7c1 0 1.7.2 2.3.7s.9 1.1.9 1.9h-1.5c0-.4-.2-.7-.5-1s-.8-.4-1.3-.4-.9.1-1.2.3-.4.5-.4.9c0 .3.1.6.4.8s.8.3 1.5.5 1.3.4 1.8.6.8.5 1 .8.3.7.3 1.2c0 .8-.3 1.4-.9 1.8s-1.4.7-2.4.7c-.7 0-1.3-.1-1.8-.4s-.9-.6-1.2-1-.4-.9-.4-1.4h1.4c0 .5.2.9.6 1.2s.8.4 1.4.4c.5 0 1-.1 1.3-.3s.6-.5.6-.9zm-300 182h1.8c.9 0 1.6-.2 2.2-.7.5-.5.8-1.1.8-2 0-.8-.2-1.5-.7-2-.4-.5-1.1-.7-2-.7-.8 0-1.5.2-2 .7-.5.5-.8 1.1-.8 1.8h-3c0-.9.2-1.7.7-2.5.5-.7 1.2-1.3 2-1.8.9-.4 1.8-.6 2.9-.6 1.8 0 3.2.4 4.2 1.3s1.5 2.1 1.5 3.7c0 .8-.3 1.5-.8 2.3-.5.7-1.2 1.2-2 1.6 1 .3 1.7.9 2.2 1.6s.8 1.6.8 2.6c0 1.6-.5 2.9-1.6 3.8s-2.5 1.4-4.3 1.4c-1.7 0-3.1-.5-4.2-1.4-1.1-.9-1.6-2.1-1.6-3.6h3c0 .8.3 1.4.8 1.9s1.2.7 2.1.7c.9 0 1.6-.2 2.2-.7s.8-1.2.8-2.1c0-.9-.3-1.7-.8-2.2-.6-.5-1.4-.8-2.5-.8H11v-2.3zm22.8 10.2h-12v-2l5.9-6.5c.9-1 1.5-1.7 1.8-2.4.4-.6.5-1.3.5-1.9 0-.8-.2-1.5-.7-2.1-.5-.5-1.1-.8-1.9-.8-1 0-1.7.3-2.2.9-.5.6-.8 1.4-.8 2.4h-3c0-1.1.2-2.1.7-2.9.5-.9 1.2-1.5 2.1-2 .9-.5 2-.7 3.2-.7 1.7 0 3.1.4 4.1 1.3 1 .9 1.5 2.1 1.5 3.6 0 .9-.3 1.8-.8 2.8-.5 1-1.3 2.1-2.5 3.3l-4.3 4.7h8.3v2.3zm20.9 0h-12v-2l5.9-6.5c.9-1 1.5-1.7 1.8-2.4.4-.6.5-1.3.5-1.9 0-.8-.2-1.5-.7-2.1-.5-.5-1.1-.8-1.9-.8-1 0-1.7.3-2.2.9-.5.6-.8 1.4-.8 2.4h-3c0-1.1.2-2.1.7-2.9.5-.9 1.2-1.5 2.1-2 .9-.5 2-.7 3.2-.7 1.7 0 3.1.4 4.1 1.3 1 .9 1.5 2.1 1.5 3.6 0 .9-.3 1.8-.8 2.8-.5 1-1.3 2.1-2.5 3.3l-4.3 4.7h8.3v2.3zm14.5 0h-12v-2l5.9-6.5c.9-1 1.5-1.7 1.8-2.4.4-.6.5-1.3.5-1.9 0-.8-.2-1.5-.7-2.1-.5-.5-1.1-.8-1.9-.8-1 0-1.7.3-2.2.9-.5.6-.8 1.4-.8 2.4h-3c0-1.1.2-2.1.7-2.9.5-.9 1.2-1.5 2.1-2 .9-.5 2-.7 3.2-.7 1.7 0 3.1.4 4.1 1.3 1 .9 1.5 2.1 1.5 3.6 0 .9-.3 1.8-.8 2.8-.5 1-1.3 2.1-2.5 3.3l-4.3 4.7h8.3v2.3zm9.8 0h-3v-14.3l-4.4 1.5v-2.5l6.9-2.6h.5v17.9zm5.7 4l-1.6-1c.5-.7.8-1.4 1-1.9.2-.5.3-1.1.3-1.7v-2.3H87v2.1c0 .9-.2 1.7-.7 2.6-.4 1-.9 1.7-1.6 2.2zm15.3-10.3h2.2v2.4H100v4h-3v-4h-7.7l-.1-1.8 7.7-12h3.1v11.4zm-7.6 0h4.7v-7.4l-.2.4-4.5 7zm23.4-6.7c0 .9-.2 1.6-.7 2.3-.4.7-1.1 1.2-1.8 1.6.9.4 1.6 1 2.1 1.8.5.7.8 1.6.8 2.5 0 1.6-.5 2.8-1.6 3.7-1.1.9-2.5 1.4-4.2 1.4-1.8 0-3.2-.5-4.2-1.4-1.1-.9-1.6-2.2-1.6-3.7 0-1 .3-1.8.8-2.6s1.2-1.3 2.1-1.7c-.8-.4-1.4-.9-1.8-1.6-.4-.7-.7-1.5-.7-2.3 0-1.5.5-2.7 1.5-3.6 1-.9 2.3-1.3 4-1.3 1.7 0 3 .4 4 1.3.8.8 1.3 2 1.3 3.6zm-2.5 8c0-.9-.3-1.6-.8-2.1s-1.2-.8-2.1-.8-1.6.3-2.1.8-.8 1.2-.8 2.1c0 .9.3 1.6.8 2.1s1.2.8 2.1.8 1.6-.3 2.1-.8c.5-.4.8-1.2.8-2.1zm-.4-7.9c0-.8-.2-1.4-.7-1.9-.4-.5-1-.8-1.8-.8s-1.4.2-1.8.7c-.4.5-.7 1.1-.7 1.9 0 .8.2 1.5.7 1.9s1 .7 1.8.7 1.4-.2 1.8-.7c.5-.4.7-1 .7-1.8zm22 6.5h-4.3c0 1.4.4 2.5 1.1 3.2.7.7 1.6 1.1 2.9 1.1.9 0 1.7-.1 2.5-.4l.3 2.5c-1 .2-2 .4-3 .4-2.1 0-3.7-.6-4.9-1.8-1.2-1.2-1.8-2.8-1.9-4.9h-2.1v-1.7h2.1V213h-2.1v-1.7h2.1c.1-2.1.8-3.7 2-4.8 1.2-1.2 2.9-1.7 4.9-1.7.9 0 1.8.1 2.9.4l-.3 2.5c-.8-.3-1.7-.4-2.5-.4-1.2 0-2.2.3-2.8 1-.7.7-1 1.7-1.1 3h4.3v1.7h-4.3v1.6h4.3v1.6zm71.6 5.1h-11v-1.9l5.4-5.9c.8-.9 1.3-1.6 1.7-2.2s.5-1.2.5-1.8c0-.8-.2-1.4-.7-1.9-.4-.5-1-.7-1.8-.7-.9 0-1.6.3-2.1.8s-.7 1.3-.7 2.2h-2.7c0-1 .2-1.9.7-2.7.5-.8 1.1-1.4 1.9-1.9.8-.4 1.8-.7 2.9-.7 1.6 0 2.8.4 3.8 1.2.9.8 1.4 1.9 1.4 3.3 0 .8-.2 1.7-.7 2.6-.5.9-1.2 1.9-2.3 3l-4 4.3h7.6v2.3zm13-14.8l-6.5 14.8h-2.9l6.5-14.2h-8.5V205h11.3v1.5zm16.9-1.6v2.3h-.3c-1.5 0-2.7.4-3.7 1.3-.9.8-1.5 2-1.6 3.5.9-.9 2-1.4 3.4-1.4s2.6.5 3.4 1.5 1.3 2.3 1.3 3.9c0 1.7-.5 3-1.5 4s-2.3 1.5-3.8 1.5c-1.6 0-3-.6-4-1.8-1-1.2-1.5-2.8-1.5-4.7v-.9c0-2.9.7-5.1 2.1-6.7s3.4-2.4 6-2.4h.2zm-2.9 7.8c-.6 0-1.1.2-1.6.5s-.9.8-1.1 1.3v.8c0 1.2.3 2.2.8 2.9s1.2 1.1 2 1.1 1.4-.3 1.9-.9c.5-.6.7-1.4.7-2.4s-.2-1.8-.7-2.4c-.6-.6-1.2-.9-2-.9zm18.4 1.7c0 2.4-.4 4.1-1.3 5.3s-2.2 1.8-4 1.8c-1.8 0-3.1-.6-4-1.7s-1.4-2.9-1.4-5.2v-2.8c0-2.4.4-4.1 1.3-5.3.9-1.2 2.2-1.8 4-1.8 1.8 0 3.1.6 4 1.7.9 1.1 1.3 2.9 1.4 5.1v2.9zm-2.8-3c0-1.5-.2-2.7-.6-3.4-.4-.7-1.1-1.1-2-1.1-.9 0-1.5.3-2 1s-.6 1.7-.7 3.2v3.7c0 1.5.2 2.7.6 3.4s1.1 1.1 2 1.1c.9 0 1.5-.3 1.9-1s.6-1.8.7-3.3v-3.6zm5.9 1.8l.9-8.2h8.8v2.4h-6.5l-.4 3.9c.8-.4 1.6-.7 2.6-.7 1.6 0 2.8.5 3.6 1.5.9 1 1.3 2.3 1.3 4 0 1.7-.5 3-1.4 4s-2.3 1.5-3.9 1.5c-1.5 0-2.7-.4-3.7-1.3s-1.5-2-1.6-3.4h2.6c.1.8.4 1.4.9 1.8s1.1.6 1.8.6c.8 0 1.5-.3 2-.9s.7-1.4.7-2.4-.3-1.8-.8-2.4-1.2-.9-2.1-.9c-.5 0-.9.1-1.3.2s-.7.4-1.1.8l-2.4-.5zm13.2 11.8l-1.5-.9c.4-.7.7-1.3.9-1.8.2-.5.2-1 .3-1.5v-2.1h2.5v2c0 .8-.2 1.6-.6 2.4-.5.7-1 1.4-1.6 1.9zm13-20.1v2.3h-.3c-1.5 0-2.7.4-3.7 1.3-.9.8-1.5 2-1.6 3.5.9-.9 2-1.4 3.4-1.4s2.6.5 3.4 1.5 1.3 2.3 1.3 3.9c0 1.7-.5 3-1.5 4s-2.3 1.5-3.8 1.5c-1.6 0-3-.6-4-1.8-1-1.2-1.5-2.8-1.5-4.7v-.9c0-2.9.7-5.1 2.1-6.7s3.4-2.4 6-2.4h.2zm-2.9 7.8c-.6 0-1.1.2-1.6.5s-.9.8-1.1 1.3v.8c0 1.2.3 2.2.8 2.9s1.2 1.1 2 1.1 1.4-.3 1.9-.9c.5-.6.7-1.4.7-2.4s-.2-1.8-.7-2.4c-.6-.6-1.2-.9-2-.9zm11.1-.8h1.7c.8 0 1.5-.2 2-.7.5-.4.7-1 .7-1.9 0-.8-.2-1.4-.6-1.8s-1-.6-1.9-.6c-.7 0-1.3.2-1.8.6-.5.4-.7 1-.7 1.7H286c0-.8.2-1.6.7-2.3.4-.7 1.1-1.2 1.9-1.6.8-.4 1.7-.6 2.7-.6 1.6 0 2.9.4 3.8 1.2.9.8 1.4 2 1.4 3.4 0 .7-.2 1.4-.7 2.1s-1.1 1.1-1.8 1.5c.9.3 1.6.8 2 1.4s.7 1.4.7 2.4c0 1.5-.5 2.6-1.5 3.5s-2.3 1.3-4 1.3c-1.6 0-2.9-.4-3.9-1.3-1-.8-1.5-2-1.5-3.3h2.7c0 .7.2 1.3.7 1.8.5.4 1.1.7 1.9.7.8 0 1.5-.2 2-.7s.7-1.1.7-2c0-.9-.3-1.5-.8-2s-1.3-.7-2.3-.7h-1.6v-2.1zm24.6 3.5h-4c0 1.3.4 2.3 1 2.9.6.6 1.5 1 2.6 1 .8 0 1.6-.1 2.3-.4l.3 2.3c-.9.2-1.8.3-2.8.3-1.9 0-3.4-.5-4.5-1.6s-1.7-2.6-1.7-4.5h-1.9v-1.6h1.9v-1.4h-1.9v-1.6h1.9c.1-1.9.7-3.4 1.8-4.5s2.6-1.6 4.5-1.6c.8 0 1.7.1 2.7.4l-.3 2.3c-.8-.3-1.5-.4-2.3-.4-1.1 0-2 .3-2.6 1-.6.6-.9 1.6-1 2.8h4v1.6h-4v1.4h4v1.6z"/><path fill="#E30989" d="M54.9 116H40.6v-2.4l7.1-7.7c1-1.1 1.8-2.1 2.2-2.9s.7-1.5.7-2.3c0-1-.3-1.8-.9-2.5-.6-.6-1.3-.9-2.3-.9-1.2 0-2 .4-2.7 1.1s-1 1.7-1 2.9h-3.6c0-1.3.3-2.5.9-3.5.6-1 1.4-1.8 2.5-2.4 1.1-.6 2.4-.9 3.8-.9 2.1 0 3.7.5 4.9 1.6 1.2 1 1.8 2.5 1.8 4.3 0 1.1-.3 2.2-.9 3.3-.6 1.2-1.6 2.5-3 4l-5.2 5.6h9.9v2.7zm16.4-9c0 3.1-.6 5.4-1.7 6.9-1.1 1.6-2.9 2.3-5.2 2.3-2.3 0-4-.8-5.2-2.3s-1.8-3.8-1.8-6.7v-3.7c0-3.1.6-5.4 1.7-6.9s2.9-2.3 5.3-2.3c2.3 0 4.1.7 5.2 2.2s1.7 3.7 1.8 6.7v3.8zm-3.5-4c0-2-.3-3.5-.8-4.4s-1.4-1.4-2.6-1.4c-1.2 0-2 .4-2.6 1.3-.5.9-.8 2.3-.9 4.1v4.8c0 2 .3 3.5.8 4.5s1.4 1.5 2.6 1.5c1.1 0 2-.5 2.5-1.4.5-.9.8-2.3.9-4.2V103zm18.4 13c-.1-.2-.2-.5-.2-.9-.7.7-1.5 1-2.4 1-.8 0-1.5-.2-2.1-.7s-.8-1.1-.8-1.8c0-.9.3-1.6 1-2.1s1.6-.7 2.8-.7H86v-.7c0-.5-.2-.9-.5-1.2s-.7-.4-1.3-.4c-.5 0-.9.1-1.3.4s-.5.6-.5.9H81c0-.4.1-.8.4-1.2s.7-.7 1.2-.9 1.1-.3 1.7-.3c1 0 1.7.2 2.3.7s.8 1.2.9 2v3.9c0 .8.1 1.4.3 1.9v.1h-1.6zm-2.4-1.1c.5 0 .9-.1 1.3-.4s.7-.5.9-.9v-1.7h-1.1c-1.8 0-2.7.5-2.7 1.6 0 .5.2.8.5 1.1s.7.3 1.1.3zm7.4-7.4v1.1c.6-.8 1.5-1.2 2.5-1.2 1.8 0 2.7 1 2.7 3v5.6H95v-5.6c0-.6-.1-1.1-.4-1.4s-.7-.4-1.3-.4c-.5 0-.9.1-1.2.4s-.6.6-.8 1v6h-1.4v-8.5h1.3zm12.4 6.3c0-.4-.1-.7-.4-.9s-.8-.4-1.5-.6-1.3-.3-1.7-.6-.7-.5-1-.8-.3-.7-.3-1.1c0-.7.3-1.3.9-1.8s1.3-.7 2.2-.7c1 0 1.7.2 2.3.7s.9 1.1.9 1.9h-1.5c0-.4-.2-.7-.5-1s-.8-.4-1.3-.4-.9.1-1.2.3-.4.5-.4.9c0 .3.1.6.4.8s.8.3 1.5.5 1.3.4 1.8.6.8.5 1 .8.3.7.3 1.2c0 .8-.3 1.4-.9 1.8s-1.4.7-2.4.7c-.7 0-1.3-.1-1.8-.4s-.9-.6-1.2-1-.4-.9-.4-1.4h1.4c0 .5.2.9.6 1.2s.8.4 1.4.4c.5 0 1-.1 1.3-.3s.5-.5.5-.8z"/><path fill="#FFF" d="M222.1 187.6h-105l-5-12 5-12h105l5 12"/><path fill="#F4F4F4" d="M219.1 183.6h-105l-5-12 5-12h105l5 12"/><path fill="#444" d="M128.5 165.9v7.7c0 1.1-.3 2-1 2.6s-1.6 1.1-2.7 1.1h-.4c-1.2 0-2.2-.3-3-1s-1.1-1.6-1.1-2.8v-7.8h1.5v7.7c0 .8.2 1.5.7 1.9s1.1.7 1.9.7c.8 0 1.5-.2 1.9-.7s.7-1.1.7-1.9v-7.7h1.5zm3.8 2.9v1.1c.6-.8 1.5-1.2 2.5-1.2 1.8 0 2.7 1 2.7 3v5.6h-1.4v-5.6c0-.6-.1-1.1-.4-1.4s-.7-.4-1.3-.4c-.5 0-.9.1-1.2.4s-.6.6-.8 1v6H131v-8.5h1.3zm15.1 7.4c.5 0 1-.2 1.4-.5s.6-.7.6-1.2h1.4c0 .5-.2.9-.5 1.4s-.7.8-1.2 1-1.1.4-1.6.4c-1.2 0-2.1-.4-2.7-1.2s-1-1.8-1-3.2v-.2c0-.8.2-1.6.5-2.2s.7-1.1 1.3-1.5 1.2-.5 2-.5c.9 0 1.7.3 2.4.9s1 1.3 1 2.2h-1.4c0-.5-.2-1-.6-1.3s-.8-.5-1.4-.5c-.7 0-1.3.3-1.7.8s-.6 1.3-.6 2.3v.3c0 1 .2 1.7.6 2.3s.7.7 1.5.7zm10.4 1.1c-.1-.2-.2-.5-.2-.9-.7.7-1.5 1-2.4 1-.8 0-1.5-.2-2.1-.7s-.8-1.1-.8-1.8c0-.9.3-1.6 1-2.1s1.6-.7 2.8-.7h1.4v-.7c0-.5-.2-.9-.5-1.2s-.7-.4-1.3-.4c-.5 0-.9.1-1.3.4s-.5.6-.5.9h-1.5c0-.4.1-.8.4-1.2s.7-.7 1.2-.9 1.1-.3 1.7-.3c1 0 1.7.2 2.3.7s.8 1.2.9 2v3.9c0 .8.1 1.4.3 1.9v.1h-1.4zm-2.4-1.1c.5 0 .9-.1 1.3-.4s.7-.5.9-.9v-1.7h-1.1c-1.8 0-2.7.5-2.7 1.6 0 .5.2.8.5 1.1s.6.3 1.1.3zm13.1-3.1c0 1.3-.3 2.3-.9 3.1s-1.4 1.2-2.4 1.2-1.8-.3-2.4-1v4.1h-1.4v-11.7h1.3l.1.9c.6-.7 1.4-1.1 2.5-1.1 1 0 1.8.4 2.4 1.1s.9 1.8.9 3.2v.2zm-1.5-.1c0-1-.2-1.7-.6-2.3s-1-.8-1.7-.8c-.9 0-1.5.4-2 1.2v4c.4.8 1.1 1.2 2 1.2.7 0 1.2-.3 1.7-.8s.6-1.4.6-2.5zm3.4-6.4c0-.2.1-.4.2-.6s.4-.2.6-.2.5.1.6.2.2.4.2.6-.1.4-.2.6-.4.2-.6.2-.5-.1-.6-.2-.2-.4-.2-.6zm1.5 10.7h-1.4v-8.5h1.4v8.5zm4.5-10.5v2h1.6v1.1h-1.6v5.2c0 .3.1.6.2.8.1.2.4.3.7.3.2 0 .4 0 .7-.1v1.2c-.4.1-.8.2-1.1.2-.6 0-1.1-.2-1.5-.6s-.5-.9-.5-1.7V170h-1.5v-1.1h1.5v-2h1.5zm8.6 10.5c-.1-.2-.2-.5-.2-.9-.7.7-1.5 1-2.4 1-.8 0-1.5-.2-2.1-.7s-.8-1.1-.8-1.8c0-.9.3-1.6 1-2.1s1.6-.7 2.8-.7h1.4v-.7c0-.5-.2-.9-.5-1.2s-.7-.4-1.3-.4c-.5 0-.9.1-1.3.4s-.5.6-.5.9h-1.5c0-.4.1-.8.4-1.2s.7-.7 1.2-.9 1.1-.3 1.7-.3c1 0 1.7.2 2.3.7s.8 1.2.9 2v3.9c0 .8.1 1.4.3 1.9v.1H185zm-2.4-1.1c.5 0 .9-.1 1.3-.4s.7-.5.9-.9v-1.7h-1.1c-1.8 0-2.7.5-2.7 1.6 0 .5.2.8.5 1.1s.6.3 1.1.3zm7.5 1.1h-1.4v-12h1.4v12zm6.2-4.3c0-1.3.3-2.3.9-3.1s1.4-1.2 2.4-1.2 1.8.3 2.4 1v-4.4h1.4v12h-1.3l-.1-.9c-.6.7-1.4 1.1-2.4 1.1s-1.8-.4-2.4-1.2-.9-1.8-.9-3.1v-.2zm1.4.1c0 1 .2 1.7.6 2.3s.9.8 1.6.8c.9 0 1.6-.4 2-1.2v-3.9c-.4-.8-1.1-1.2-2-1.2-.7 0-1.3.3-1.7.8s-.5 1.4-.5 2.4zm11.6 4.3c-1.1 0-2.1-.4-2.8-1.1s-1.1-1.8-1.1-3v-.3c0-.8.2-1.6.5-2.2s.8-1.2 1.3-1.5 1.2-.6 1.9-.6c1.1 0 2 .4 2.6 1.1s.9 1.8.9 3.1v.6h-5.7c0 .8.3 1.5.7 2s1.1.8 1.8.8c.5 0 .9-.1 1.3-.3s.7-.5.9-.8l.9.7c-.7 1-1.8 1.5-3.2 1.5zm-.2-7.6c-.6 0-1.1.2-1.5.6s-.6 1-.7 1.8h4.2v-.1c0-.7-.2-1.3-.6-1.7s-.8-.6-1.4-.6z"/><path fill="#FFF" d="M197.1 38h-60l-5-12 5-12h60l5 12"/><path fill="#BFD730" d="M194.1 34h-60l-5-12 5-12h60l5 12"/><path fill="#FFF" d="M207.1 121h-80l-5-12 5-12h80l5 12"/><path fill="#EC008C" d="M204.1 117h-80l-5-12 5-12h80l5 12"/><path fill="#333" d="M147.6 27h-4.8l-1.1 3h-1.5l4.3-11.4h1.3l4.4 11.4h-1.5l-1.1-3zm-1.5-9.1h-1.2l-2-2.3h1.7l1.5 2.3zm-2.8 7.9h3.9l-1.9-5.3-2 5.3zm15.5-4.6h1.6c.8 0 1.3-.2 1.7-.6.4-.4.5-.9.5-1.5s-.2-1.1-.5-1.4c-.4-.3-.9-.5-1.5-.5s-1 .2-1.4.5c-.4.3-.6.7-.6 1.2h-3c0-.8.2-1.5.6-2.1.4-.6 1-1.1 1.8-1.5.8-.3 1.6-.5 2.5-.5 1.6 0 2.8.4 3.7 1.1.9.8 1.3 1.8 1.3 3.1 0 .7-.2 1.3-.6 1.9-.4.6-1 1-1.6 1.3.8.3 1.5.8 1.9 1.4.4.6.6 1.3.6 2.1 0 1.3-.5 2.4-1.5 3.2-1 .8-2.2 1.2-3.8 1.2-1.5 0-2.7-.4-3.7-1.2-.9-.8-1.4-1.8-1.4-3.1h3c0 .6.2 1 .6 1.4.4.4.9.5 1.6.5.7 0 1.3-.2 1.7-.6.4-.4.6-.9.6-1.5 0-1.5-.8-2.2-2.5-2.2h-1.6v-2.2zm14.6-3.3c0-.9.3-1.7.9-2.2.6-.6 1.4-.9 2.3-.9 1 0 1.8.3 2.4.8.6.6.9 1.3.9 2.3v.7c0 .9-.3 1.7-.9 2.2s-1.4.8-2.3.8c-1 0-1.8-.3-2.4-.8-.6-.6-.9-1.3-.9-2.3v-.6zm2 .8c0 .4.1.7.4 1 .2.3.5.4.9.4s.7-.1.9-.4c.2-.3.3-.6.3-1v-.8c0-.4-.1-.7-.3-1-.2-.3-.5-.4-.9-.4s-.7.1-.9.4c-.2.3-.3.6-.3 1v.8zm1.9 10.2l-1.4-.8 7.3-11.7 1.4.8-7.3 11.7zm3.3-2.6c0-.9.3-1.7.9-2.2.6-.6 1.4-.8 2.3-.8 1 0 1.8.3 2.4.8.6.6.9 1.3.9 2.3v.7c0 .9-.3 1.7-.9 2.2-.6.6-1.4.8-2.3.8-1 0-1.8-.3-2.4-.9-.6-.6-.9-1.3-.9-2.3v-.6zm1.9.8c0 .4.1.7.4 1 .2.3.6.4.9.4.8 0 1.3-.5 1.3-1.4v-.8c0-.4-.1-.7-.3-1-.2-.3-.5-.4-.9-.4s-.7.1-.9.4c-.2.3-.3.6-.3 1v.8z"/><path fill="#FFF" d="M142.8 105.2c0 1.3-.3 2.3-.9 3.1s-1.4 1.2-2.4 1.2-1.8-.3-2.4-1v4.1h-1.4v-11.7h1.3l.1.9c.6-.7 1.4-1.1 2.5-1.1 1 0 1.8.4 2.4 1.1s.9 1.8.9 3.2v.2zm-1.4-.1c0-1-.2-1.7-.6-2.3s-1-.8-1.7-.8c-.9 0-1.5.4-2 1.2v4c.4.8 1.1 1.2 2 1.2.7 0 1.2-.3 1.7-.8s.6-1.4.6-2.5zm6.9 4.4c-1.1 0-2.1-.4-2.8-1.1s-1.1-1.8-1.1-3v-.3c0-.8.2-1.6.5-2.2s.8-1.2 1.3-1.5 1.2-.6 1.9-.6c1.1 0 2 .4 2.6 1.1s.9 1.8.9 3.1v.6h-5.7c0 .8.3 1.5.7 2s1.1.8 1.8.8c.5 0 .9-.1 1.3-.3s.7-.5.9-.8l.9.7c-.7 1-1.8 1.5-3.2 1.5zm-.2-7.5c-.6 0-1.1.2-1.5.6s-.6 1-.7 1.8h4.2v-.1c0-.7-.2-1.3-.6-1.7s-.8-.6-1.4-.6zm6.8-1.1v1.1c.6-.8 1.5-1.2 2.5-1.2 1.8 0 2.7 1 2.7 3v5.6h-1.4v-5.6c0-.6-.1-1.1-.4-1.4s-.7-.4-1.3-.4c-.5 0-.9.1-1.2.4s-.6.6-.8 1v6h-1.4v-8.5h1.3zm7.2 4.2c0-1.3.3-2.3.9-3.1s1.4-1.2 2.4-1.2 1.8.3 2.4 1v-4.4h1.4v12h-1.3l-.1-.9c-.6.7-1.4 1.1-2.4 1.1s-1.8-.4-2.4-1.2-.9-1.8-.9-3.1v-.2zm1.4.1c0 1 .2 1.7.6 2.3s.9.8 1.6.8c.9 0 1.6-.4 2-1.2v-3.9c-.4-.8-1.1-1.2-2-1.2-.7 0-1.3.3-1.7.8s-.5 1.4-.5 2.4zm13.3 4.2c-.1-.2-.2-.5-.2-.9-.7.7-1.5 1-2.4 1-.8 0-1.5-.2-2.1-.7s-.8-1.1-.8-1.8c0-.9.3-1.6 1-2.1s1.6-.7 2.8-.7h1.4v-.7c0-.5-.2-.9-.5-1.2s-.7-.4-1.3-.4c-.5 0-.9.1-1.3.4s-.5.6-.5.9h-1.5c0-.4.1-.8.4-1.2s.7-.7 1.2-.9 1.1-.3 1.7-.3c1 0 1.7.2 2.3.7s.8 1.2.9 2v3.9c0 .8.1 1.4.3 1.9v.1h-1.4zm-2.4-1.1c.5 0 .9-.1 1.3-.4s.7-.5.9-.9v-1.7h-1.1c-1.8 0-2.7.5-2.7 1.6 0 .5.2.8.5 1.1s.6.3 1.1.3zm7.3-7.4v1.1c.6-.8 1.5-1.2 2.5-1.2 1.8 0 2.7 1 2.7 3v5.6h-1.4v-5.6c0-.6-.1-1.1-.4-1.4s-.7-.4-1.3-.4c-.5 0-.9.1-1.2.4s-.6.6-.8 1v6h-1.4v-8.5h1.3zm9.6-2v2h1.6v1.1h-1.6v5.2c0 .3.1.6.2.8.1.2.4.3.7.3.2 0 .4 0 .7-.1v1.2c-.4.1-.8.2-1.1.2-.6 0-1.1-.2-1.5-.6s-.5-.9-.5-1.7V102h-1.5v-1.1h1.5v-2h1.5z"/><path fill="#E30989" d="M234.3 116h-3.5V98.9l-5.2 1.8v-3l8.3-3.1h.5V116zm19.8-9c0 3.1-.6 5.4-1.7 6.9-1.1 1.6-2.9 2.3-5.2 2.3-2.3 0-4-.8-5.2-2.3s-1.8-3.8-1.8-6.7v-3.7c0-3.1.6-5.4 1.7-6.9s2.9-2.3 5.3-2.3c2.3 0 4.1.7 5.2 2.2s1.7 3.7 1.8 6.7v3.8zm-3.5-4c0-2-.3-3.5-.8-4.4s-1.4-1.4-2.6-1.4c-1.2 0-2 .4-2.6 1.3-.5.9-.8 2.3-.9 4.1v4.8c0 2 .3 3.5.8 4.5s1.4 1.5 2.6 1.5c1.1 0 2-.5 2.5-1.4.5-.9.8-2.3.9-4.2V103zm18.4 13c-.1-.2-.2-.5-.2-.9-.7.7-1.5 1-2.4 1-.8 0-1.5-.2-2.1-.7s-.8-1.1-.8-1.8c0-.9.3-1.6 1-2.1s1.6-.7 2.8-.7h1.4v-.7c0-.5-.2-.9-.5-1.2s-.7-.4-1.3-.4c-.5 0-.9.1-1.3.4s-.5.6-.5.9h-1.5c0-.4.1-.8.4-1.2s.7-.7 1.2-.9 1.1-.3 1.7-.3c1 0 1.7.2 2.3.7s.8 1.2.9 2v3.9c0 .8.1 1.4.3 1.9v.1H269zm-2.4-1.1c.5 0 .9-.1 1.3-.4s.7-.5.9-.9v-1.7h-1.1c-1.8 0-2.7.5-2.7 1.6 0 .5.2.8.5 1.1s.7.3 1.1.3zm7.4-7.4v1.1c.6-.8 1.5-1.2 2.5-1.2 1.8 0 2.7 1 2.7 3v5.6h-1.4v-5.6c0-.6-.1-1.1-.4-1.4s-.7-.4-1.3-.4c-.5 0-.9.1-1.2.4s-.6.6-.8 1v6h-1.4v-8.5h1.3zm12.4 6.3c0-.4-.1-.7-.4-.9s-.8-.4-1.5-.6-1.3-.3-1.7-.6-.7-.5-1-.8-.3-.7-.3-1.1c0-.7.3-1.3.9-1.8s1.3-.7 2.2-.7c1 0 1.7.2 2.3.7s.9 1.1.9 1.9h-1.5c0-.4-.2-.7-.5-1s-.8-.4-1.3-.4-.9.1-1.2.3-.4.5-.4.9c0 .3.1.6.4.8s.8.3 1.5.5 1.3.4 1.8.6.8.5 1 .8.3.7.3 1.2c0 .8-.3 1.4-.9 1.8s-1.4.7-2.4.7c-.7 0-1.3-.1-1.8-.4s-.9-.6-1.2-1-.4-.9-.4-1.4h1.4c0 .5.2.9.6 1.2s.8.4 1.4.4c.5 0 1-.1 1.3-.3s.5-.5.5-.8z"/><g fill="none" stroke="#EC008C" stroke-miterlimit="10"><path stroke-width="4" d="M231 131.6h50"/><path d="M231.5 138.6v-14m5 7v-7m6 7v-7m5 7v-7m6 14v-14m5 7v-7m6 7v-7m5 7v-7m6 7v-7m5 14v-14"/></g><g fill="none" stroke="#EC008C" stroke-miterlimit="10"><path stroke-width="6" d="M22 133.6h100"/><path d="M22.5 140.6v-14m5 7v-7m6 7v-7m5 7v-7m6 14v-14m5 7v-7m6 7v-7m5 7v-7m6 7v-7m5 14v-14m5 7v-7m6 7v-7m5 7v-7m6 14v-14m5 7v-7m6 7v-7m5 7v-7m6 7v-7m5 14v-14"/></g><path fill="#FFF" d="M73 75.1c-8 0-14.5-6.5-14.5-14.5S65 46.1 73 46.1s14.5 6.5 14.5 14.5S81 75.1 73 75.1z"/><path fill="#78903F" d="M73 47.1c7.4 0 13.5 6.1 13.5 13.5S80.4 74.1 73 74.1 59.5 68 59.5 60.6s6-13.5 13.5-13.5m0-2c-8.6 0-15.5 6.9-15.5 15.5S64.4 76.1 73 76.1s15.5-6.9 15.5-15.5-7-15.5-15.5-15.5z"/><path fill="#78903F" d="M74.2 63.2H70c0 1.4.4 2.4 1 3s1.5 1 2.7 1c.9 0 1.7-.1 2.4-.4l.3 2.4c-.9.2-1.9.3-2.9.3-2 0-3.6-.6-4.7-1.7S67 65.1 67 63.1h-2v-1.7h2V60h-2v-1.7h2c.1-2 .7-3.5 1.9-4.6s2.7-1.7 4.7-1.7c.8 0 1.8.1 2.8.4l-.3 2.4c-.8-.3-1.6-.4-2.4-.4-1.2 0-2.1.3-2.7 1s-1 1.6-1.1 2.9h4.2V60h-4.2v1.5h4.2v1.7z"/><path fill="#FFF" d="M246 75.1c-8 0-14.5-6.5-14.5-14.5S238 46.1 246 46.1s14.5 6.5 14.5 14.5S254 75.1 246 75.1z"/><path fill="#78903F" d="M246 47.1c7.4 0 13.5 6.1 13.5 13.5s-6.1 13.5-13.5 13.5-13.5-6.1-13.5-13.5 6-13.5 13.5-13.5m0-2c-8.6 0-15.5 6.9-15.5 15.5s6.9 15.5 15.5 15.5 15.5-6.9 15.5-15.5-7-15.5-15.5-15.5z"/><path fill="#78903F" d="M247.2 63.2H243c0 1.4.4 2.4 1 3s1.5 1 2.7 1c.9 0 1.7-.1 2.4-.4l.3 2.4c-.9.2-1.9.3-2.9.3-2 0-3.6-.6-4.7-1.7s-1.8-2.7-1.8-4.7h-2v-1.7h2V60h-2v-1.7h2c.1-2 .7-3.5 1.9-4.6s2.7-1.7 4.7-1.7c.8 0 1.8.1 2.8.4l-.3 2.4c-.8-.3-1.6-.4-2.4-.4-1.2 0-2.1.3-2.7 1s-1 1.6-1.1 2.9h4.2V60h-4.2v1.5h4.2v1.7z"/><path fill="#FFF" d="M266 75.1c-8 0-14.5-6.5-14.5-14.5S258 46.1 266 46.1s14.5 6.5 14.5 14.5S274 75.1 266 75.1z"/><path fill="#78903F" d="M266 47.1c7.4 0 13.5 6.1 13.5 13.5s-6.1 13.5-13.5 13.5-13.5-6.1-13.5-13.5 6-13.5 13.5-13.5m0-2c-8.6 0-15.5 6.9-15.5 15.5s6.9 15.5 15.5 15.5 15.5-6.9 15.5-15.5-7-15.5-15.5-15.5z"/><path fill="#78903F" d="M267.2 63.2H263c0 1.4.4 2.4 1 3s1.5 1 2.7 1c.9 0 1.7-.1 2.4-.4l.3 2.4c-.9.2-1.9.3-2.9.3-2 0-3.6-.6-4.7-1.7s-1.8-2.7-1.8-4.7h-2v-1.7h2V60h-2v-1.7h2c.1-2 .7-3.5 1.9-4.6s2.7-1.7 4.7-1.7c.8 0 1.8.1 2.8.4l-.3 2.4c-.8-.3-1.6-.4-2.4-.4-1.2 0-2.1.3-2.7 1s-1 1.6-1.1 2.9h4.2V60h-4.2v1.5h4.2v1.7z"/><path fill="#FFF" d="M20.9 234.8h103.2v45.6H20.9z"/><path fill="#78903F" d="M122.9 236v43.2H22.1V236h100.8m2.4-2.4H19.7v48h105.6v-48z"/><path fill="#78903F" d="M78.4 261.5h-7.5c.1 2.4.7 4.3 1.8 5.5 1.1 1.2 2.8 1.8 4.9 1.8 1.5 0 3-.2 4.3-.7l.6 4.3c-1.7.4-3.4.6-5.2.6-3.6 0-6.4-1-8.5-3-2.1-2-3.2-4.9-3.3-8.5H62v-3h3.6v-2.7H62v-3h3.6c.2-3.6 1.3-6.4 3.4-8.4 2.1-2 4.9-3 8.5-3 1.5 0 3.2.2 5 .7l-.6 4.4c-1.4-.5-2.9-.7-4.3-.7-2.1 0-3.8.6-4.9 1.8s-1.8 2.9-1.9 5.2h7.5v3h-7.5v2.7h7.5v3z"/><path fill="none" stroke="#78903F" stroke-width="4" stroke-miterlimit="10" d="M70.7 189.7c7-10.1 19.7-17.4 31.4-17.4"/><path fill="#78903F" d="M80.7 186.4l-9.4 2.3-2.2-9.3-3 4.9 2.3 9.3 9.3-2.3"/><path fill="none" stroke="#78903F" stroke-width="4" stroke-miterlimit="10" d="M261.6 189.7c-7-10.1-19.7-17.4-31.4-17.4"/><path fill="#78903F" d="M263.3 179.4l-2.3 9.3-9.3-2.3 3 4.9 9.3 2.3 2.3-9.3"/></svg>