<?xml version="1.0" encoding="utf-8"?>
<!-- Generator: Adobe Illustrator 19.1.0, SVG Export Plug-In . SVG Version: 6.00 Build 0)  -->
<svg version="1.1" id="Calque_1" xmlns="http://www.w3.org/2000/svg" xmlns:xlink="http://www.w3.org/1999/xlink" x="0px" y="0px"
	 viewBox="0 0 328.4 295" enable-background="new 0 0 328.4 295" xml:space="preserve">
<symbol  id="billet_2" viewBox="-22 -11.1 44 21.1">
	<g>
		<polygon fill="#FFFFFF" points="-21.5,-9.5 -21.5,9.5 21.5,9.5 21.5,-9.5 		"/>
		<path fill="#78903F" d="M21,9V-9h-42V9H21 M22,10h-44v-20h44V10L22,10z"/>
	</g>
	<text transform="matrix(1 0 0 -1 -5.2051 -6.2607)" fill="#78903F" font-family="'Roboto-Medium'" font-size="18px">€</text>
</symbol>
<symbol  id="euro-piece" viewBox="-16 -15.5 32 31">
	<g>
		<path fill="#FFFFFF" d="M0-14.5C-8-14.5-14.5-8-14.5,0S-8,14.5,0,14.5S14.5,8,14.5,0S8-14.5,0-14.5z"/>
		<path fill="#78903F" d="M0,13.5c7.4,0,13.5-6.1,13.5-13.5S7.4-13.5,0-13.5S-13.5-7.4-13.5,0S-7.4,13.5,0,13.5 M0,15.5
			c-8.6,0-15.5-6.9-15.5-15.5S-8.6-15.5,0-15.5S15.5-8.6,15.5,0S8.6,15.5,0,15.5L0,15.5z"/>
	</g>
	<text transform="matrix(1 0 0 -1 -8.9707 -8.7637)" fill="#78903F" font-family="'Roboto-Medium'" font-size="24px">€</text>
	<polygon display="none" fill="none" points="-16,15 16,15 16,-15 -16,-15 	"/>
</symbol>
<path fill="#F4F4F4" d="M140,295H5c-2.8,0-5-2.2-5-5V5c0-2.8,2.2-5,5-5h135c2.8,0,5,2.2,5,5v285C145,292.8,142.8,295,140,295z"/>
<path fill="#F4F4F4" d="M323.4,295h-135c-2.8,0-5-2.2-5-5V5c0-2.8,2.2-5,5-5h135c2.8,0,5,2.2,5,5v285
	C328.4,292.8,326.2,295,323.4,295z"/>
<text transform="matrix(1 0 0 1 14.7198 34)"><tspan x="0" y="0" fill="#78903F" font-family="'Roboto-Medium'" font-size="26px">100 €</tspan><tspan x="66.9" y="0" fill="#78903F" font-family="'Roboto-Regular'" font-size="16px">/mois</tspan></text>
<use xlink:href="#billet_2"  width="44" height="21.1" id="XMLID_6_" x="-22" y="-11.1" transform="matrix(2.0455 0 0 -2.0455 255.931 257.6003)" overflow="visible"/>
<text transform="matrix(1 0 0 1 204.1544 32.6685)"><tspan x="0" y="0" fill="#78903F" font-family="'Roboto-Medium'" font-size="26px">200 €</tspan><tspan x="66.9" y="0" fill="#78903F" font-family="'Roboto-Regular'" font-size="16px">/mois</tspan></text>
<text transform="matrix(1 0 0 1 5.3118 222.6369)" fill="#78903F" font-family="'Roboto-Medium'" font-size="25px">32 221,48 €</text>
<text transform="matrix(1 0 0 1 194.1207 221.3055)" fill="#78903F" font-family="'Roboto-Medium'" font-size="23px">27 605,63 €</text>
<text transform="matrix(1 0 0 1 38.6515 115.9995)"><tspan x="0" y="0" fill="#E30989" font-family="'Roboto-Medium'" font-size="30px">20</tspan><tspan x="34.7" y="0" fill="#E30989" font-family="'Roboto-Medium'" font-size="26px"> </tspan><tspan x="41.4" y="0" fill="#E30989" font-family="'Roboto-Regular'" font-size="16px">ans</tspan></text>
<polygon fill="#FFFFFF" points="222.1,187.6 117.1,187.6 112.1,175.6 117.1,163.6 222.1,163.6 227.1,175.6 "/>
<polygon fill="#F4F4F4" points="219.1,183.6 114.1,183.6 109.1,171.6 114.1,159.6 219.1,159.6 224.1,171.6 "/>
<text transform="matrix(1 0 0 1 119.0261 177.271)" fill="#444444" font-family="'Roboto-Regular'" font-size="16px">Un capital de</text>
<polygon fill="#FFFFFF" points="197.1,38 137.1,38 132.1,26 137.1,14 197.1,14 202.1,26 "/>
<polygon fill="#BFD730" points="194.1,34 134.1,34 129.1,22 134.1,10 194.1,10 199.1,22 "/>
<polygon fill="#FFFFFF" points="207.1,121 127.1,121 122.1,109 127.1,97 207.1,97 212.1,109 "/>
<polygon fill="#EC008C" points="204.1,117 124.1,117 119.1,105 124.1,93 204.1,93 209.1,105 "/>
<g>
	<text transform="matrix(1 0 0 1 140.0398 29.9881)"><tspan x="0" y="0" fill="#333333" font-family="'Roboto-Regular'" font-size="16px">À </tspan><tspan x="14.7" y="0" fill="#333333" font-family="'Roboto-Bold'" font-size="21px">3 %</tspan></text>
</g>
<text transform="matrix(1 0 0 1 134.5129 109.376)" fill="#FFFFFF" font-family="'Roboto-Regular'" font-size="16px">pendant</text>
<text transform="matrix(1 0 0 1 222.0848 115.9996)"><tspan x="0" y="0" fill="#E30989" font-family="'Roboto-Medium'" font-size="30px">10</tspan><tspan x="34.7" y="0" fill="#E30989" font-family="'Roboto-Medium'" font-size="26px"> </tspan><tspan x="41.4" y="0" fill="#E30989" font-family="'Roboto-Regular'" font-size="16px">ans</tspan></text>
<g>
	<line fill="none" stroke="#EC008C" stroke-width="4" stroke-miterlimit="10" x1="231" y1="131.6" x2="281" y2="131.6"/>
	<line fill="none" stroke="#EC008C" stroke-miterlimit="10" x1="231.5" y1="138.6" x2="231.5" y2="124.6"/>
	<line fill="none" stroke="#EC008C" stroke-miterlimit="10" x1="236.5" y1="131.6" x2="236.5" y2="124.6"/>
	<line fill="none" stroke="#EC008C" stroke-miterlimit="10" x1="242.5" y1="131.6" x2="242.5" y2="124.6"/>
	<line fill="none" stroke="#EC008C" stroke-miterlimit="10" x1="247.5" y1="131.6" x2="247.5" y2="124.6"/>
	<line fill="none" stroke="#EC008C" stroke-miterlimit="10" x1="253.5" y1="138.6" x2="253.5" y2="124.6"/>
	<line fill="none" stroke="#EC008C" stroke-miterlimit="10" x1="258.5" y1="131.6" x2="258.5" y2="124.6"/>
	<line fill="none" stroke="#EC008C" stroke-miterlimit="10" x1="264.5" y1="131.6" x2="264.5" y2="124.6"/>
	<line fill="none" stroke="#EC008C" stroke-miterlimit="10" x1="269.5" y1="131.6" x2="269.5" y2="124.6"/>
	<line fill="none" stroke="#EC008C" stroke-miterlimit="10" x1="275.5" y1="131.6" x2="275.5" y2="124.6"/>
	<line fill="none" stroke="#EC008C" stroke-miterlimit="10" x1="280.5" y1="138.6" x2="280.5" y2="124.6"/>
</g>
<g>
	<line fill="none" stroke="#EC008C" stroke-width="6" stroke-miterlimit="10" x1="22" y1="133.6" x2="122" y2="133.6"/>
	<line fill="none" stroke="#EC008C" stroke-miterlimit="10" x1="22.5" y1="140.6" x2="22.5" y2="126.6"/>
	<line fill="none" stroke="#EC008C" stroke-miterlimit="10" x1="27.5" y1="133.6" x2="27.5" y2="126.6"/>
	<line fill="none" stroke="#EC008C" stroke-miterlimit="10" x1="33.5" y1="133.6" x2="33.5" y2="126.6"/>
	<line fill="none" stroke="#EC008C" stroke-miterlimit="10" x1="38.5" y1="133.6" x2="38.5" y2="126.6"/>
	<line fill="none" stroke="#EC008C" stroke-miterlimit="10" x1="44.5" y1="140.6" x2="44.5" y2="126.6"/>
	<line fill="none" stroke="#EC008C" stroke-miterlimit="10" x1="49.5" y1="133.6" x2="49.5" y2="126.6"/>
	<line fill="none" stroke="#EC008C" stroke-miterlimit="10" x1="55.5" y1="133.6" x2="55.5" y2="126.6"/>
	<line fill="none" stroke="#EC008C" stroke-miterlimit="10" x1="60.5" y1="133.6" x2="60.5" y2="126.6"/>
	<line fill="none" stroke="#EC008C" stroke-miterlimit="10" x1="66.5" y1="133.6" x2="66.5" y2="126.6"/>
	<line fill="none" stroke="#EC008C" stroke-miterlimit="10" x1="71.5" y1="140.6" x2="71.5" y2="126.6"/>
	<line fill="none" stroke="#EC008C" stroke-miterlimit="10" x1="76.5" y1="133.6" x2="76.5" y2="126.6"/>
	<line fill="none" stroke="#EC008C" stroke-miterlimit="10" x1="82.5" y1="133.6" x2="82.5" y2="126.6"/>
	<line fill="none" stroke="#EC008C" stroke-miterlimit="10" x1="87.5" y1="133.6" x2="87.5" y2="126.6"/>
	<line fill="none" stroke="#EC008C" stroke-miterlimit="10" x1="93.5" y1="140.6" x2="93.5" y2="126.6"/>
	<line fill="none" stroke="#EC008C" stroke-miterlimit="10" x1="98.5" y1="133.6" x2="98.5" y2="126.6"/>
	<line fill="none" stroke="#EC008C" stroke-miterlimit="10" x1="104.5" y1="133.6" x2="104.5" y2="126.6"/>
	<line fill="none" stroke="#EC008C" stroke-miterlimit="10" x1="109.5" y1="133.6" x2="109.5" y2="126.6"/>
	<line fill="none" stroke="#EC008C" stroke-miterlimit="10" x1="115.5" y1="133.6" x2="115.5" y2="126.6"/>
	<line fill="none" stroke="#EC008C" stroke-miterlimit="10" x1="120.5" y1="140.6" x2="120.5" y2="126.6"/>
</g>
<use xlink:href="#euro-piece"  width="32" height="31" id="XMLID_4_" x="-16" y="-15.5" transform="matrix(1 0 0 -1 72.9678 60.5954)" overflow="visible"/>
<g>
	
		<use xlink:href="#euro-piece"  width="32" height="31" x="-16" y="-15.5" transform="matrix(1 0 0 -1 245.9678 60.5954)" overflow="visible"/>
	
		<use xlink:href="#euro-piece"  width="32" height="31" x="-16" y="-15.5" transform="matrix(1 0 0 -1 265.9678 60.5954)" overflow="visible"/>
</g>
<use xlink:href="#billet_2"  width="44" height="21.1" id="XMLID_2_" x="-22" y="-11.1" transform="matrix(2.4 0 0 -2.4 72.4973 257.6003)" overflow="visible"/>
<g>
	<g>
		<path fill="none" stroke="#78903F" stroke-width="4" stroke-miterlimit="10" d="M70.7,189.7c7-10.1,19.7-17.4,31.4-17.4"/>
		<g>
			<polygon fill="#78903F" points="80.7,186.4 71.3,188.7 69.1,179.4 66.1,184.3 68.4,193.6 77.7,191.3 			"/>
		</g>
	</g>
</g>
<g>
	<g>
		<path fill="none" stroke="#78903F" stroke-width="4" stroke-miterlimit="10" d="M261.6,189.7c-7-10.1-19.7-17.4-31.4-17.4"/>
		<g>
			<polygon fill="#78903F" points="263.3,179.4 261,188.7 251.7,186.4 254.7,191.3 264,193.6 266.3,184.3 			"/>
		</g>
	</g>
</g>
</svg>
